PathFileType	4	(X/Y/Z)	Patient4_TMGait_0pt4_02_left_23.trc.trc
DataRate	CameraRate	NumFrames	NumMarkers	Units	OrigDataRate	OrigDataStartFrame	OrigNumFrames
74.866310160428	74.866310160428	4	33	mm	74.866310160428	71	       141
Frame#	Time	Sacral			L.Shoulder			Chest			R.Shoulder			Neck			R.ASIS			L.ASIS			R.Thigh.Superior			R.Thigh.Lateral			R.Thigh.Inferior			R.Patella			L.Thigh.Superior			L.Thigh.Lateral			L.Thigh.Inferior			L.Patella			L.Shank.Superior			L.Shank.Lateral			L.Shank.Inferior			R.Shank.Superior			R.Shank.Lateral			R.Shank.Inferior			R.Heel			R.Midfoot.Superior			R.Midfoot.Lateral			R.Toe			L.Heel			L.Midfoot.Lateral			L.Midfoot.Superior			L.Toe			L.Elbow			L.Wrist			R.Elbow			R.Wrist			
		X1	Y1	Z1	X2	Y2	Z2	X3	Y3	Z3	X4	Y4	Z4	X5	Y5	Z5	X6	Y6	Z6	X7	Y7	Z7	X8	Y8	Z8	X9	Y9	Z9	X10	Y10	Z10	X11	Y11	Z11	X12	Y12	Z12	X13	Y13	Z13	X14	Y14	Z14	X15	Y15	Z15	X16	Y16	Z16	X17	Y17	Z17	X18	Y18	Z18	X19	Y19	Z19	X20	Y20	Z20	X21	Y21	Z21	X22	Y22	Z22	X23	Y23	Z23	X24	Y24	Z24	X25	Y25	Z25	X26	Y26	Z26	X27	Y27	Z27	X28	Y28	Z28	X29	Y29	Z29	X30	Y30	Z30	X31	Y31	Z31	X32	Y32	Z32	X33	Y33	Z33	

71	31.755000000000	910.091231657393	1006.305467799461	436.822163662653	1110.395299334381	1435.257185551162	263.239474118720	1199.077294564750	1363.927487234717	430.852930570719	1104.377773756517	1438.381513971079	598.494723721848	1084.176600214980	1496.258614639709	418.960879712099	1132.812866221460	945.617713053164	569.405987400381	1132.514324930651	961.696992415656	293.089152499830	1191.309177078597	754.865141737983	546.890220846551	1136.812164133122	643.519692220383	622.077758087158	1218.350366969866	595.193763385720	540.601515947718	1245.139808912345	519.210202394935	556.944144763715	1150.558879270919	737.860339284169	323.731155803439	1046.213053511173	636.046838342196	254.065662967493	1112.040426202267	547.248934628197	319.649401890607	1100.565228964148	480.357994775047	327.829942960783	1070.493183459446	411.147247947105	317.757162782206	972.577067904645	304.332011262323	266.905151903254	1013.126099903852	189.081044010778	336.813729665307	1235.516722336171	434.398798452922	572.434904053271	1192.536267722658	319.854670944772	641.231934921487	1265.380700880425	236.898431535439	588.762486933445	1183.562480953615	45.780092372287	569.357063443863	1345.681724991720	124.712045895231	599.658174151914	1271.572757340453	47.506612131420	638.346708063283	1472.336317712112	92.138569835332	618.919745684723	878.846158986101	39.090311657515	382.279792768019	946.946243690810	35.393429899229	296.813204730975	1032.017927261460	95.885021229404	320.179289302419	1158.374629458086	43.398268865688	281.595362827127	1160.502425343863	1106.227354377596	109.366699251222	1410.913074643204	1039.459837383312	124.169527321477	983.609621241852	1112.707541211877	709.611716401391	984.017131165753	850.898817907393	707.529907950853	
72	31.768357142857	911.569246588865	1005.489859199103	438.822286189078	1111.701014043470	1434.630160130377	265.944004287176	1200.127264942128	1363.243779079930	433.644602617586	1105.053942780854	1437.537915414307	601.165075547461	1085.155278751758	1495.487177579842	421.629269755078	1134.118147596938	944.541720785289	571.630326594995	1134.085112753622	961.051842586581	295.276029842923	1192.228731003329	753.465432759752	548.848465977131	1136.225555808406	641.474380314943	622.570411142441	1218.141226559239	593.628745961464	541.390961190995	1243.744275459601	517.361450982168	557.020651832207	1150.317833213064	736.602674389978	325.436277604053	1045.089296043756	635.695619112630	255.536268835994	1110.208872893382	546.279653630435	320.870933453148	1098.276015949043	479.326254348359	328.803513345339	1067.605300866515	410.443746220006	318.651393120039	968.761336661485	304.512134976647	267.528505280266	1008.444620960525	188.676149851034	336.990075944593	1233.472711479549	431.868573995593	572.156625181472	1188.770751451154	317.573547528559	639.883602927256	1260.819905499843	234.198904569912	587.486595881907	1176.971509656736	45.290300448439	566.526412361219	1339.732286988871	121.054009786963	598.136659735467	1264.138405844433	45.784362484573	636.426636792448	1465.596506261956	86.472190414232	618.724216643247	873.466128908536	39.040641411135	382.260285539582	941.562074346917	35.352620079707	296.810301050622	1026.652500579259	95.819955294490	320.196724169437	1153.009045302961	43.196737496787	281.569608008127	1161.243236775240	1105.520513379650	112.120625355187	1411.658160797760	1039.346939095647	127.845932017200	983.376066300863	1112.313527782937	711.875313388128	984.435575088488	850.442232259035	710.175623942442	
73	31.781714285714	913.194309597829	1004.493178861420	441.115118913807	1112.811041593537	1433.936469961360	268.848058623358	1201.118794389591	1362.565667164344	436.594477916054	1105.692160794016	1436.605658359623	604.054147248131	1086.008986563905	1494.640812878090	424.521763589690	1135.722766820249	943.408397143911	573.920644320846	1135.746925848373	960.374567873183	297.557578734259	1194.041861241696	752.332043401540	550.743249129513	1136.477745315792	639.508412225718	622.924811730675	1218.942196293795	592.308268905519	542.169896950066	1243.192968093561	515.348988921410	557.019214496931	1150.294926983675	735.300597239227	327.113398909218	1044.150568333098	635.264367710945	257.141164019366	1108.718081829020	545.234425531241	322.083590352838	1096.402422888732	478.141094344515	329.764012867421	1064.992568332388	409.624463906910	319.585777758196	965.058731521247	304.692523357783	268.251837088668	1003.822036721223	188.201133049376	337.187356912876	1231.780909230225	428.968285789084	571.695082010799	1184.666237260809	315.292594610554	638.534686214775	1255.101904246322	230.953666449036	586.100012684259	1167.770544767630	44.917835129821	564.020713640787	1331.604594547657	116.763102935924	596.573856141821	1254.194295425660	43.948827046461	634.750943785337	1456.597924254198	79.551555161713	618.418732422106	868.070189348460	38.926932332586	382.249096976505	936.174579951841	35.270089221784	296.825284146348	1021.280910815316	95.739488718055	320.225187872039	1147.658204432970	42.981209167581	281.537615551667	1161.600113779070	1104.646889376234	115.111101234099	1411.859339349772	1038.283332764583	131.756639933025	983.900525344305	1111.468009975494	714.371531769571	986.312554284283	849.545363961882	713.021964951109	
74	31.795071428571	914.939310871141	1003.345962020802	443.669760135960	1113.739525267648	1433.188944399860	271.947239932581	1202.068198204694	1361.898114261848	439.697383217444	1106.321542395830	1435.596831631063	607.161628866142	1086.766253863282	1493.741168760560	427.636158684168	1137.598729496713	942.244909139168	576.257130106438	1137.470702439409	959.676618929250	299.919952823342	1196.577420626086	751.369818824360	552.583899757545	1137.406463144869	637.657117580712	623.208568025265	1220.522263064823	591.189075548553	542.947590091132	1243.294647440711	513.228279958786	556.930346471965	1150.527940241948	733.983109650229	328.729631751884	1043.421048768226	634.753871938520	258.878192209446	1107.611016169233	544.119894876278	323.285086468513	1095.001390890785	476.796280577866	330.706920820551	1062.694184502802	408.689484710643	320.561709740080	961.497619778532	304.888862510077	269.086135349614	999.277995284425	187.667756695716	337.413782001555	1230.456743199191	425.864850609120	571.112102512526	1180.597896087383	313.067820796642	637.333169394801	1248.801409590585	227.393210967267	584.683439505737	1157.029638587933	44.557140232844	562.000225545182	1322.179520451563	112.266218282134	595.030905545026	1242.877334617837	42.133154611894	633.401130322311	1446.344997191402	72.184753053020	617.938365505631	862.659419237654	38.772910077067	382.243474702883	930.789620177994	35.152873323018	296.859439757966	1015.920688720361	95.644281220674	320.261371946210	1142.333394666318	42.747224649781	281.496397900928	1161.550939373306	1103.611016936248	118.323670995238	1411.496759164905	1036.294238940965	135.851100513064	985.171606159367	1110.191050740082	717.108685701017	989.593731649438	848.240077002777	716.061375545798	
